<?xml version="1.0" encoding="UTF-8" standalone="no"?>
<svg
   width="70.245926"
   height="18.661198"
   viewBox="0 0 70.245926 18.661198"
   fill="none"
   version="1.1"
   id="svg11"
   sodipodi:docname="315949ff623122869508aabcd20d62f0.svg"
   xmlns:inkscape="http://www.inkscape.org/namespaces/inkscape"
   xmlns:sodipodi="http://sodipodi.sourceforge.net/DTD/sodipodi-0.dtd"
   xmlns="http://www.w3.org/2000/svg"
   xmlns:svg="http://www.w3.org/2000/svg">
  <sodipodi:namedview
     id="namedview13"
     pagecolor="#ffffff"
     bordercolor="#666666"
     borderopacity="1.0"
     inkscape:pageshadow="2"
     inkscape:pageopacity="0.0"
     inkscape:pagecheckerboard="0" />
  <path
     d="m 10.351527,5.699578 c -0.0592,-0.65105 -0.3225,-1.15708 -0.7901,-1.51811 -0.46164,-0.36696 -1.12156,-0.55043 -1.97975,-0.55043 -0.56818,0 -1.04167,0.07398 -1.42046,0.22194 -0.37878,0.14797 -0.66287,0.35216 -0.85227,0.61258 -0.18939,0.25449 -0.28705,0.54746 -0.29297,0.8789 -0.01183,0.27226 0.04143,0.51196 0.1598,0.71911 0.12429,0.20715 0.30185,0.39062 0.53267,0.55042 0.23675,0.15389 0.52084,0.29001 0.85228,0.40838 0.33144,0.11838 0.70431,0.22195 1.11861,0.31073 l 1.56249,0.35511 c 0.8996,0.19531 1.6927,0.45573 2.3793,0.78125 0.6924,0.32552 1.2725,0.71319 1.74,1.16304 0.4735,0.4498 0.8316,0.9676 1.0742,1.5536 0.2427,0.5859 0.367,1.2429 0.3729,1.9709 -0.0059,1.1482 -0.2959,2.1336 -0.87,2.9563 -0.5741,0.8227 -1.3998,1.453 -2.4769,1.891 -1.0713,0.4379 -2.3645,0.6569 -3.87965,0.6569 -1.52107,0 -2.84683,-0.2278 -3.97727,-0.6836 -1.13045,-0.4557 -2.00936,-1.1482 -2.63672,-2.0774 -0.62737,-0.9292 -0.949932,-2.104 -0.967687,-3.5245 h 4.208097 c 0.03551,0.5859 0.19235,1.0742 0.47052,1.4649 0.27818,0.3906 0.65992,0.6865 1.14525,0.8877 0.49124,0.2013 1.05942,0.3019 1.70454,0.3019 0.59186,0 1.09494,-0.0799 1.50923,-0.2397 0.42019,-0.1598 0.74279,-0.3818 0.96769,-0.6659 0.2249,-0.284 0.3403,-0.6096 0.3462,-0.9765 -0.0059,-0.3433 -0.1124,-0.6363 -0.3196,-0.8789 -0.2071,-0.2486 -0.5267,-0.4617 -0.95877,-0.6392 -0.42614,-0.1835 -0.97065,-0.3522 -1.63353,-0.5061 l -1.89985,-0.4439 c -1.57434,-0.361 -2.81428,-0.944 -3.71982,-1.74889 -0.90554,-0.81084 -1.35535,-1.90578 -1.34943,-3.2848 -0.00592,-1.12453 0.29593,-2.10997 0.90554,-2.95632 0.60961,-0.84636 1.453,-1.50628 2.53018,-1.97976 C 4.983427,0.236742 6.211527,0 7.590557,0 c 1.40861,0 2.63077,0.239701 3.66657,0.719108 1.0416,0.47348 1.8495,1.13932 2.4236,1.99751 0.5741,0.85819 0.8671,1.85251 0.8789,2.98296 z m 11.0707,-5.450999 v 18.181819 h -4.3945 V 0.248579 Z m 2.7588,18.181819 V 0.248579 h 7.5106 c 1.3613,0 2.5361,0.245619 3.5245,0.736859 0.9944,0.48532 1.7608,1.18371 2.2994,2.09517 0.5386,0.90554 0.8079,1.97976 0.8079,3.22266 0,1.26065 -0.2752,2.33191 -0.8256,3.21373 -0.5505,0.876 -1.3317,1.5448 -2.3438,2.0064 -1.0121,0.4558 -2.2106,0.6836 -3.5955,0.6836 h -4.7497 v -3.46232 h 3.9329 c 0.6629,0 1.2163,-0.08582 1.6602,-0.25746 0.4498,-0.17756 0.7901,-0.44389 1.0209,-0.79901 0.2308,-0.36103 0.3463,-0.82268 0.3463,-1.38494 0,-0.56226 -0.1155,-1.02687 -0.3463,-1.39382 -0.2308,-0.37287 -0.5711,-0.65104 -1.0209,-0.83452 -0.4498,-0.18939 -1.0032,-0.28409 -1.6602,-0.28409 h -2.1662 v 14.63956 z m 10.2361,-8.3097 4.5277,8.3097 h -4.794 l -4.4389,-8.3097 z m 6.3166,8.3097 V 0.248579 h 4.3946 v 7.688209 h 0.2397 l 6.0103,-7.688209 h 5.1757 l -6.4453,8.114349 6.5608,10.06747 h -5.2557 l -4.5277,-7.1467 -1.7578,2.2195 v 4.9272 z m 17.5537,0 V 0.248579 h 4.3946 v 14.612919 h 7.5639 v 3.5689 z"
     fill="url(#paint0_linear_43_378)"
     id="path2"
     style="fill:url(#paint0_linear_43_378)" />
  <defs
     id="defs9">
    <linearGradient
       id="paint0_linear_43_378"
       x1="5.8924797e-07"
       y1="-1.25001"
       x2="72.855598"
       y2="2.5360799"
       gradientUnits="userSpaceOnUse"
       gradientTransform="translate(-0.852273,-0.569602)">
      <stop
         stop-color="#1DE99B"
         id="stop4" />
      <stop
         offset="1"
         stop-color="#0063FB"
         id="stop6" />
    </linearGradient>
  </defs>
</svg>
